<?xml version="1.0" encoding="utf-8"?>
<!-- Generator: Adobe Illustrator 25.4.1, SVG Export Plug-In . SVG Version: 6.00 Build 0)  -->
<svg version="1.1" id="Layer_1" xmlns="http://www.w3.org/2000/svg" xmlns:xlink="http://www.w3.org/1999/xlink" x="0px" y="0px"
	 viewBox="0 0 5226.85 998.38" style="enable-background:new 0 0 5226.85 998.38;" xml:space="preserve">
<style type="text/css">
	.st0{fill:#FC8708;}
	.st1{clip-path:url(#SVGID_00000129194099324678085320000003061783303983794073_);}
</style>
<rect class="st0" width="5226.85" height="998.38"/>
<g>
	<defs>
		<rect id="SVGID_1_" x="-932.1" y="-2883.72" width="6843.88" height="6843.88"/>
	</defs>
	<clipPath id="SVGID_00000034803196017171897620000010125939026621542325_">
		<use xlink:href="#SVGID_1_"  style="overflow:visible;"/>
	</clipPath>
	<path style="clip-path:url(#SVGID_00000034803196017171897620000010125939026621542325_);" d="M2109.41,157.12
		c188.82-35.08,385.43-38,572.85,7.03c32.92,54.87,60.49,113.42,76.11,175.74c58.54-30.33,124.98-40.76,190.01-45.52
		c62.6-3.03,126.33-1.03,186.88,16.43c34.81,10.81,72.65,27.73,89.36,62.28c15.51,36.22-2.76,75.68-24.49,104.98
		c-44.33,58.71-104.22,103.03-163.85,144.93c-62.55,42-127.09,81.57-195.2,113.79c33.84-40,67.52-81.63,87.14-130.77
		c2.97-5.62,4.49-13.19,11.14-15.79c64.6-34.98,129.96-73.41,177.47-130.66c19.73-24.87,38.44-60.33,21.14-91.41
		c-22-35.84-66.82-46.06-105.41-52.33c-91.57-11.19-183.91,4.81-272.89,25.95c16.87,73.25,22.11,148.71,18.49,223.69
		c-22.27-117.58-53.84-235.26-115.25-339c-140.17-36.92-286.83-43.68-430.84-32.06c88.49,80.06,140.55,192.93,163.47,308.62
		c17.78,85.74,22.38,173.69,22.16,261.05c-19.68-116.87-43.3-234.99-96.17-342.08C2272.5,318.81,2198.17,228.64,2109.41,157.12"/>
	<path style="clip-path:url(#SVGID_00000034803196017171897620000010125939026621542325_);" d="M2112.92,293.3
		c21.08-9.89,42.17-20,63.19-30.06c64.6,61.57,114.71,137.74,148.88,220.07c33.08,79.47,52.27,164.07,64.87,249.05
		c-9.41-23.73-14.97-48.76-23.84-72.66c-39.95-116.22-103.47-225.69-192.28-311.38C2154.76,328.54,2133.68,311.08,2112.92,293.3"/>
	<path style="clip-path:url(#SVGID_00000034803196017171897620000010125939026621542325_);" d="M2090.06,379.03
		c16.43-11.73,33.03-23.24,49.52-34.87c84.82,73.19,143.53,172.45,185.04,275.48c12.76,35.14,28.76,69.74,34.87,106.82
		c-30.16-68.76-67.3-134.71-113.04-194.45c-42.65,33.89-83.2,71.79-112.82,117.79c-15.35,24.92-26.27,57.95-12.11,85.74
		c18.33,30.22,55.14,40.27,87.41,47.79c75.52,14.06,156.07,10.43,227.32-20.16c75.19-32,138.93-84.22,206.12-129.63
		c21.41-14.11,45.73-30.6,72.71-25.79c7.14,9.19-0.65,19.95-7.14,26.97c-25.46,24.98-60.87,40.33-79.57,71.79
		c-9.14,14.7,9.68,26.92,23.08,24.54c69.9-3.68,126.5-50.87,173.04-98.87c17.46-16.33,35.89-40,62.82-35.62
		c4.16,18.81-4.16,36.76-14.81,51.79c-59.14,78.98-140.23,142.6-233.8,175.26c-90.76,32.71-187.85,44.98-283.97,44.17
		c-68.65-1.03-137.63-8.76-203.75-27.95c-36.27-11.19-73.84-26.16-98.49-56.38c-16.87-19.79-20.76-48.27-13.19-72.71
		c10.65-36.65,37.68-65.25,65.14-90.44c41.79-37.14,90.33-65.79,140.28-90.55C2200.82,472.28,2148.01,422.12,2090.06,379.03"/>
	<path style="clip-path:url(#SVGID_00000034803196017171897620000010125939026621542325_);" d="M436.81,718.41
		C419.59,701.44,411,674.1,411,636.38V448.28h-62.23V391h62.94V284.21h65.06V391h91.93v57.28h-91.93v186.69
		c0,18.39,3.65,31.59,10.96,39.6c7.3,8.02,19.2,12.02,35.71,12.02h45.26v57.28h-48.09C481.95,743.87,454.01,735.38,436.81,718.41"/>
	<path style="clip-path:url(#SVGID_00000034803196017171897620000010125939026621542325_);" d="M653.55,391h62.94v51.62
		c9.42-15.56,23.21-28.29,41.37-38.19c18.14-9.9,37.13-14.85,56.93-14.85h36.77v58.69h-36.77c-28.76,0-51.87,8.84-69.3,26.52
		c-17.45,17.68-26.16,40.91-26.16,69.66v199.42h-65.77V391z"/>
	<path style="clip-path:url(#SVGID_00000034803196017171897620000010125939026621542325_);" d="M923.68,331.95
		c-8.49-8.24-12.73-18.97-12.73-32.18c0-13.19,4.24-23.92,12.73-32.18c8.49-8.24,19.56-12.38,33.24-12.38
		c13.67,0,24.63,4.13,32.88,12.38c8.24,8.25,12.38,18.98,12.38,32.18c0,13.2-4.13,23.93-12.38,32.18
		c-8.25,8.25-19.21,12.38-32.88,12.38C943.24,344.32,932.17,340.2,923.68,331.95 M923.68,390.99h65.77v352.87h-65.77V390.99z"/>
	<path style="clip-path:url(#SVGID_00000034803196017171897620000010125939026621542325_);" d="M1101.18,391h62.94v48.79
		c10.36-16.02,24.15-29.1,41.37-39.25c17.2-10.13,34.3-15.2,51.27-15.2h46.67c33.94,0,61.4,11.31,82.38,33.94
		c20.97,22.63,31.47,52.33,31.47,89.1v235.48h-65.77V508.38c0-19.32-4.95-35-14.85-47.03c-9.9-12.02-22.87-18.03-38.89-18.03h-43.84
		c-20.28,0-38.66,7.78-55.16,23.34c-16.51,15.56-27.11,35.83-31.82,60.82v216.39h-65.77V391z"/>
	<polygon style="clip-path:url(#SVGID_00000034803196017171897620000010125939026621542325_);" points="1752.47,743.87 
		1623.77,585.47 1577.8,630.72 1577.8,743.87 1512.03,743.87 1512.03,248.86 1577.8,248.86 1577.8,552.94 1741.16,391 1819.65,391 
		1666.9,542.33 1828.84,743.87 	"/>
	<path style="clip-path:url(#SVGID_00000034803196017171897620000010125939026621542325_);" d="M3426.3,722.3
		c-21.22-18.14-31.82-42.31-31.82-72.48v-23.34c0-29.7,11.07-53.62,33.23-71.78c22.15-18.14,51.15-27.23,86.98-27.23h44.55
		c14.14,0,29.23,2.12,45.26,6.36c16.02,4.24,29.7,10.14,41.02,17.68V499.9c0-17.44-5.43-31.47-16.27-42.08
		c-10.85-10.61-24.99-15.91-42.43-15.91h-57.99c-17.92,0-32.3,4.24-43.14,12.73c-10.85,8.49-16.27,19.57-16.27,33.24h-65.06
		c0-30.64,11.42-55.39,34.3-74.25c22.86-18.85,52.92-28.29,90.16-28.29h57.99c37.24,0,67.18,10.5,89.81,31.47
		c22.63,20.98,33.94,48.68,33.94,83.09v243.97h-61.52v-47.38c-10.85,16.03-24.99,28.88-42.43,38.54
		c-17.45,9.66-35.13,14.5-53.04,14.5h-42.43C3475.8,749.53,3447.51,740.46,3426.3,722.3 M3557.12,695.08
		c20.74,0,39.13-6.01,55.16-18.03c16.02-12.02,27.1-28.17,33.24-48.44v-21.22c-8.96-8.01-21.22-14.37-36.77-19.09
		c-15.56-4.71-31.59-7.07-48.09-7.07h-45.26c-16.51,0-29.94,4.24-40.31,12.73c-10.38,8.49-15.56,19.8-15.56,33.94v21.21
		c0,14.14,5.06,25.35,15.2,33.59c10.13,8.25,23.69,12.38,40.66,12.38H3557.12z"/>
	<path style="clip-path:url(#SVGID_00000034803196017171897620000010125939026621542325_);" d="M3805.33,391h62.94v51.62
		c9.42-15.56,23.21-28.29,41.37-38.19c18.14-9.9,37.13-14.85,56.93-14.85h36.77v58.69h-36.77c-28.76,0-51.87,8.84-69.3,26.52
		c-17.45,17.68-26.17,40.91-26.17,69.66v199.42h-65.77V391z"/>
	<path style="clip-path:url(#SVGID_00000034803196017171897620000010125939026621542325_);" d="M4071.93,722.3
		c-21.22-18.14-31.82-42.31-31.82-72.48v-23.34c0-29.7,11.07-53.62,33.23-71.78c22.15-18.14,51.15-27.23,86.98-27.23h44.55
		c14.14,0,29.23,2.12,45.26,6.36c16.02,4.24,29.7,10.14,41.02,17.68V499.9c0-17.44-5.43-31.47-16.27-42.08
		c-10.85-10.61-24.99-15.91-42.43-15.91h-57.99c-17.92,0-32.3,4.24-43.14,12.73c-10.85,8.49-16.27,19.57-16.27,33.24h-65.06
		c0-30.64,11.42-55.39,34.3-74.25c22.86-18.85,52.92-28.29,90.16-28.29h57.99c37.24,0,67.18,10.5,89.81,31.47
		c22.63,20.98,33.94,48.68,33.94,83.09v243.97h-61.52v-47.38c-10.85,16.03-24.99,28.88-42.43,38.54
		c-17.45,9.66-35.12,14.5-53.04,14.5h-42.43C4121.43,749.53,4093.15,740.46,4071.93,722.3 M4202.76,695.08
		c20.74,0,39.13-6.01,55.16-18.03c16.02-12.02,27.1-28.17,33.24-48.44v-21.22c-8.96-8.01-21.22-14.37-36.77-19.09
		c-15.56-4.71-31.59-7.07-48.09-7.07h-45.26c-16.51,0-29.94,4.24-40.31,12.73c-10.37,8.49-15.56,19.8-15.56,33.94v21.21
		c0,14.14,5.06,25.35,15.2,33.59c10.13,8.25,23.69,12.38,40.66,12.38H4202.76z"/>
	<polygon style="clip-path:url(#SVGID_00000034803196017171897620000010125939026621542325_);" points="4418.44,712.75 
		4621.39,446.86 4426.92,446.86 4426.92,391 4716.15,391 4716.15,422.11 4513.19,688 4712.61,688 4712.61,743.87 4418.44,743.87 	
		"/>
	<path style="clip-path:url(#SVGID_00000034803196017171897620000010125939026621542325_);" d="M4799.59,331.95
		c-8.48-8.24-12.73-18.97-12.73-32.18c0-13.19,4.24-23.92,12.73-32.18c8.49-8.24,19.56-12.38,33.24-12.38
		c13.67,0,24.63,4.13,32.88,12.38c8.24,8.25,12.38,18.98,12.38,32.18c0,13.2-4.13,23.93-12.38,32.18
		c-8.25,8.25-19.22,12.38-32.88,12.38C4819.14,344.32,4808.07,340.2,4799.59,331.95 M4799.59,390.99h65.77v352.87h-65.77V390.99z"/>
</g>
</svg>
